# xmcd CD database file
#
# Track frame offsets:
#	225
#	32890
#	53842
#	87823
#	114258
#	136580
#	173419
#	189870
#	225311
#	242830
#
# Disc length: 3698 seconds
#
# Revision: 0
# Processed by: cddbd v1.5.1PL0 Copyright (c) Steve Scherf et al.
# Submitted via: CDex 1.50
#
DISCID=6a0e6f0a
DTITLE=台灣爵士樂 - 台灣爵士樂
DYEAR=2000
DGENRE=Jazz
TTITLE0=望春風
TTITLE1=苦戀歌
TTITLE2=丟丟銅仔
TTITLE3=送君珠淚滴
TTITLE4=港都夜雨
TTITLE5=秋風夜雨
TTITLE6=黃昏再會
TTITLE7=望你早歸
TTITLE8=落花淚影
TTITLE9=月夜嘆
EXTD=YEAR: 2000
EXTT0=
EXTT1=
EXTT2=
EXTT3=
EXTT4=
EXTT5=
EXTT6=
EXTT7=
EXTT8=
EXTT9=
PLAYORDER=
